<?xml version="1.0" encoding="utf-8"?>
<!-- Generator: Adobe Illustrator 26.1.0, SVG Export Plug-In . SVG Version: 6.00 Build 0)  -->
<svg version="1.1" id="a" xmlns="http://www.w3.org/2000/svg" xmlns:xlink="http://www.w3.org/1999/xlink" x="0px" y="0px"
	 viewBox="0 0 65.5 24.2" style="enable-background:new 0 0 65.5 24.2;" xml:space="preserve">
<style type="text/css">
	.st0{fill:#FFFFFF;}
</style>
<path class="st0" d="M11.2,23.4L4.1,12v11.4H0V0h4.1v10.8L10.7,0h5.1L8.9,11.2l7.6,12.2C16.6,23.4,11.2,23.4,11.2,23.4z"/>
<path class="st0" d="M34.2,0h4.1v23.4h-4.1V0z"/>
<g>
	<path class="st0" d="M58.9,4.7v4.8c1.4,0.7,2.3,2.4,2.3,4.5s-0.9,3.8-2.3,4.5v4.8c3.9-0.9,6.6-4.6,6.6-9.3S62.7,5.6,58.9,4.7
		L58.9,4.7z"/>
	<path class="st0" d="M54.8,18.5c-1.4-0.7-2.3-2.4-2.3-4.5s0.9-3.7,2.3-4.5V4.7c-3.9,0.9-6.6,4.6-6.6,9.3s2.7,8.4,6.6,9.3
		C54.8,23.4,54.8,18.5,54.8,18.5z"/>
	<rect x="54.8" y="4.7" width="4.1" height="18.6"/>
</g>
<path class="st0" d="M26.8,17.3C26.1,18.4,25,19,23.7,19c-2.1,0-3.5-1.4-3.8-3.8h11.8c0.1-0.5,0.1-1,0.1-1.4l0,0
	c0-5.2-3.3-9.5-8.1-9.5s-8.1,4.1-8.1,9.5s3.5,9.5,8.1,9.5c3.5,0,6.4-2.3,7.6-6.1h-4.5C26.8,17.2,26.8,17.3,26.8,17.3z M23.7,8.5
	c1.8,0,3.2,1.1,3.8,3.1h-7.4C20.6,9.6,21.9,8.5,23.7,8.5z"/>
<g>
	<path class="st0" d="M41.5,7.3h4.1v16.1h-4.1V7.3z"/>
	<rect x="41.5" class="st0" width="4.1" height="4.5"/>
</g>
</svg>
