<?xml version="1.0" encoding="utf-8"?>
<!-- Generator: Adobe Illustrator 26.2.1, SVG Export Plug-In . SVG Version: 6.00 Build 0)  -->
<svg version="1.1" id="Layer_1" xmlns="http://www.w3.org/2000/svg" xmlns:xlink="http://www.w3.org/1999/xlink" x="0px" y="0px"
	 viewBox="0 0 140.26 27.35" style="enable-background:new 0 0 140.26 27.35;" xml:space="preserve">
<g>
	<path d="M10.75,23.55c0.54,0,1.07-0.07,1.6-0.2c0.53-0.13,1-0.33,1.42-0.59c0.42-0.26,0.75-0.58,1.01-0.97
		c0.25-0.38,0.38-0.82,0.38-1.33c0-0.6-0.17-1.14-0.52-1.61c-0.35-0.47-0.8-0.9-1.36-1.29c-0.56-0.39-1.2-0.76-1.92-1.11
		c-0.72-0.35-1.45-0.69-2.2-1.04c-0.75-0.35-1.48-0.71-2.2-1.09c-0.72-0.38-1.36-0.81-1.92-1.28c-0.56-0.47-1.01-1-1.36-1.57
		c-0.35-0.58-0.52-1.25-0.52-2c0-0.75,0.16-1.45,0.47-2.09s0.77-1.2,1.38-1.67C5.6,5.23,6.34,4.87,7.23,4.6
		c0.89-0.27,1.9-0.4,3.04-0.4c1.03,0,1.96,0.1,2.77,0.3c0.81,0.2,1.53,0.49,2.15,0.88c0.62,0.39,1.14,0.86,1.57,1.43
		c0.43,0.56,0.78,1.22,1.04,1.96l-1.88,0.77c-0.22-0.6-0.5-1.16-0.84-1.65c-0.34-0.5-0.75-0.93-1.22-1.28
		c-0.47-0.36-1.02-0.63-1.64-0.82c-0.62-0.19-1.32-0.29-2.1-0.29c-0.69,0-1.3,0.09-1.81,0.26C7.77,5.91,7.34,6.14,7,6.42
		c-0.35,0.28-0.6,0.6-0.77,0.95C6.05,7.72,5.96,8.08,5.96,8.45c0,0.51,0.18,0.99,0.53,1.42c0.35,0.43,0.82,0.84,1.4,1.22
		c0.58,0.38,1.25,0.75,1.99,1.11c0.74,0.36,1.5,0.72,2.27,1.08c0.77,0.37,1.53,0.75,2.27,1.14c0.74,0.4,1.41,0.83,1.99,1.3
		c0.58,0.47,1.05,0.99,1.4,1.54c0.35,0.56,0.53,1.19,0.53,1.88c0,0.78-0.17,1.52-0.49,2.21c-0.33,0.69-0.83,1.29-1.48,1.8
		c-0.66,0.51-1.48,0.91-2.46,1.21c-0.98,0.3-2.12,0.45-3.41,0.45c-1.06,0-2-0.1-2.82-0.31c-0.83-0.21-1.55-0.51-2.19-0.91
		c-0.63-0.4-1.17-0.88-1.62-1.45c-0.45-0.57-0.82-1.22-1.11-1.95l1.96-0.73c0.23,0.64,0.54,1.22,0.93,1.72
		C6.03,21.67,6.49,22.1,7,22.45c0.52,0.35,1.09,0.62,1.72,0.81C9.36,23.45,10.03,23.55,10.75,23.55z"/>
	<path d="M30.21,4.64h2.06l14.34,14.4h0.17V4.64h1.62v20.15h-0.86L32.01,8.79h-0.13v15.55h-1.67V4.64z"/>
	<path d="M76.3,4.64v1.28H64.76v7.04h7.72v1.28h-7.72v8.82H76.3v1.28H61.09V4.64H76.3z"/>
	<path d="M91.05,14.89v9.44h-3.68V4.64h3.68v8.97h10.99V4.64h3.68v19.69h-3.68v-9.44H91.05z"/>
	<path d="M126.99,4.2l10.3,20.13h-3.75l-3.33-6.56h-9.39l-3.45,6.56h-1.85L126.07,4.2H126.99z M121.47,16.49h8.07l-3.98-7.8
		L121.47,16.49z"/>
</g>
<g>
	<path d="M137.29,6.85c0,1.52-1.18,2.71-2.7,2.71c-1.52,0-2.68-1.19-2.68-2.69c0-1.5,1.17-2.69,2.7-2.69
		C136.14,4.18,137.29,5.34,137.29,6.85z M136.77,6.85c0-1.24-0.91-2.18-2.16-2.18c-1.26,0-2.17,0.96-2.17,2.19
		c0,1.23,0.91,2.19,2.16,2.19C135.83,9.06,136.77,8.09,136.77,6.85z M135.45,7.36l0.65,0.99h-0.79l-0.56-0.85h-0.03h-0.49v0.85
		h-0.79V5.39h1.29c0.81,0,1.29,0.41,1.29,1.05C136.01,6.88,135.81,7.19,135.45,7.36z M134.67,6.9c0.36,0,0.56-0.17,0.56-0.46
		c0-0.3-0.21-0.47-0.56-0.47h-0.45V6.9H134.67z"/>
</g>
</svg>
